# xmcd CD database file
#
# Track frame offsets:
#	150
#	24275
#	48400
#	64980
#
# Disc length: 1085 seconds
#
# Revision: 6
# Processed by: cddbd v1.5.2PL0 Copyright (c) Steve Scherf et al.
# Submitted via: jetAudio 7
#
DISCID=2d043b04
DTITLE=中島美嘉 - NANA starring MIKA NAKASHIMA
DYEAR=2006
DGENRE=J-POP(J)
TTITLE0=一色
TTITLE1=一色(INST)
TTITLE2=EYES FOR THE MOON
TTITLE3=EYES FOR THE MOON(INST)
EXTD=YEAR: 2006
EXTT0=
EXTT1=
EXTT2=
EXTT3=
PLAYORDER=
